<svg width="90" height="90" viewBox="0 0 90 90" fill="none" xmlns="http://www.w3.org/2000/svg">
<g opacity="0.3">
<path d="M70.5938 18.9492C63.7816 12.2087 54.5833 8.43081 45 8.43751H44.6133C36.0147 8.52159 27.7208 11.6336 21.1893 17.2267C14.6578 22.8198 10.3066 30.536 8.90046 39.0193C7.49428 47.5025 9.12309 56.21 13.5006 63.6113C17.8782 71.0127 24.7243 76.6343 32.8359 79.4883C34.5323 80.0838 36.3467 80.2641 38.1271 80.0141C39.9075 79.7641 41.6021 79.0909 43.0688 78.0512C44.5355 77.0114 45.7316 75.6352 46.557 74.038C47.3823 72.4408 47.8129 70.669 47.8125 68.8711V67.5C47.8125 66.0082 48.4051 64.5774 49.46 63.5225C50.5149 62.4676 51.9457 61.875 53.4375 61.875H69.6797C72.2344 61.8942 74.7181 61.035 76.715 59.4414C78.7118 57.8477 80.1005 55.6164 80.6484 53.1211C81.2877 50.355 81.5945 47.5224 81.5625 44.6836C81.5341 39.8807 80.5495 35.1316 78.6663 30.7133C76.7831 26.2949 74.0389 22.2958 70.5938 18.9492ZM31.2891 57.7969C30.5663 58.2133 29.7362 58.4062 28.9039 58.351C28.0715 58.2958 27.2742 57.9951 26.6127 57.4869C25.9512 56.9787 25.4552 56.2858 25.1874 55.4957C24.9196 54.7057 24.8921 53.854 25.1082 53.0483C25.3244 52.2426 25.7746 51.5191 26.4018 50.9692C27.0291 50.4193 27.8054 50.0677 28.6324 49.9588C29.4595 49.85 30.3002 49.9887 31.0484 50.3576C31.7966 50.7265 32.4187 51.3089 32.8359 52.0313C33.1133 52.5113 33.2932 53.0413 33.3656 53.591C33.4379 54.1407 33.4012 54.6992 33.2575 55.2347C33.1139 55.7702 32.8661 56.2721 32.5283 56.7117C32.1905 57.1513 31.7694 57.5201 31.2891 57.7969ZM32.8359 37.9688C32.4187 38.6911 31.7966 39.2735 31.0484 39.6424C30.3002 40.0113 29.4595 40.1501 28.6324 40.0412C27.8054 39.9324 27.0291 39.5808 26.4018 39.0309C25.7746 38.4809 25.3244 37.7574 25.1082 36.9517C24.8921 36.146 24.9196 35.2943 25.1874 34.5043C25.4552 33.7142 25.9512 33.0213 26.6127 32.5131C27.2742 32.0049 28.0715 31.7042 28.9039 31.649C29.7362 31.5938 30.5663 31.7867 31.2891 32.2031C32.2522 32.7687 32.9542 33.6903 33.2436 34.7691C33.5331 35.8478 33.3866 36.9971 32.8359 37.9688ZM45 30.9375C44.1656 30.9375 43.35 30.6901 42.6562 30.2265C41.9624 29.763 41.4217 29.1041 41.1024 28.3332C40.7831 27.5623 40.6995 26.7141 40.8623 25.8957C41.0251 25.0774 41.4269 24.3257 42.0169 23.7357C42.6069 23.1456 43.3586 22.7439 44.177 22.5811C44.9953 22.4183 45.8436 22.5018 46.6144 22.8211C47.3853 23.1404 48.0442 23.6812 48.5078 24.3749C48.9713 25.0687 49.2188 25.8844 49.2188 26.7188C49.2188 27.8376 48.7743 28.9107 47.9831 29.7019C47.1919 30.493 46.1189 30.9375 45 30.9375ZM62.9297 39.5156C62.2069 39.9321 61.3769 40.1249 60.5445 40.0698C59.7121 40.0146 58.9148 39.7139 58.2533 39.2057C57.5918 38.6974 57.0958 38.0045 56.828 37.2145C56.5603 36.4244 56.5327 35.5727 56.7489 34.767C56.965 33.9613 57.4152 33.2378 58.0425 32.6879C58.6698 32.138 59.446 31.7864 60.273 31.6776C61.1001 31.5687 61.9409 31.7075 62.6891 32.0764C63.4373 32.4453 64.0593 33.0277 64.4766 33.75C65.0272 34.7217 65.1737 35.871 64.8843 36.9497C64.5948 38.0284 63.8928 38.9501 62.9297 39.5156Z" fill="#6B99C3"/>
</g>
</svg>
