<svg width="90" height="90" viewBox="0 0 90 90" fill="none" xmlns="http://www.w3.org/2000/svg">
<g opacity="0.3">
<path d="M45 8.4375C37.7686 8.4375 30.6997 10.5819 24.687 14.5994C18.6743 18.6169 13.988 24.3272 11.2207 31.0081C8.45334 37.6891 7.72928 45.0406 9.14005 52.133C10.5508 59.2254 14.0331 65.7402 19.1464 70.8536C24.2598 75.9669 30.7746 79.4492 37.867 80.86C44.9595 82.2707 52.311 81.5467 58.9919 78.7793C65.6728 76.012 71.3831 71.3257 75.4006 65.313C79.4182 59.3004 81.5625 52.2314 81.5625 45C81.5439 35.3087 77.6859 26.0197 70.8331 19.1669C63.9803 12.3142 54.6913 8.45608 45 8.4375ZM64.6875 47.8125H45C44.2541 47.8125 43.5387 47.5162 43.0113 46.9887C42.4838 46.4613 42.1875 45.7459 42.1875 45V25.3125C42.1875 24.5666 42.4838 23.8512 43.0113 23.3238C43.5387 22.7963 44.2541 22.5 45 22.5C45.7459 22.5 46.4613 22.7963 46.9888 23.3238C47.5162 23.8512 47.8125 24.5666 47.8125 25.3125V42.1875H64.6875C65.4334 42.1875 66.1488 42.4838 66.6763 43.0113C67.2037 43.5387 67.5 44.2541 67.5 45C67.5 45.7459 67.2037 46.4613 66.6763 46.9887C66.1488 47.5162 65.4334 47.8125 64.6875 47.8125Z" fill="#6B99C3"/>
</g>
</svg>
