<svg width="90" height="90" viewBox="0 0 90 90" fill="none" xmlns="http://www.w3.org/2000/svg">
<g opacity="0.3">
<path d="M70.3125 11.25H57.5508C55.9743 9.4794 54.0409 8.06237 51.8778 7.09206C49.7147 6.12175 47.3708 5.62012 45 5.62012C42.6292 5.62012 40.2853 6.12175 38.1222 7.09206C35.9591 8.06237 34.0257 9.4794 32.4492 11.25H19.6875C18.1957 11.25 16.7649 11.8427 15.71 12.8976C14.6551 13.9525 14.0625 15.3832 14.0625 16.875V75.9375C14.0625 77.4294 14.6551 78.8601 15.71 79.915C16.7649 80.9699 18.1957 81.5625 19.6875 81.5625H70.3125C71.8043 81.5625 73.2351 80.9699 74.29 79.915C75.3449 78.8601 75.9375 77.4294 75.9375 75.9375V16.875C75.9375 15.3832 75.3449 13.9525 74.29 12.8976C73.2351 11.8427 71.8043 11.25 70.3125 11.25ZM45 11.25C47.9808 11.2593 50.8369 12.4476 52.9447 14.5553C55.0525 16.6631 56.2407 19.5192 56.25 22.5H33.75C33.7593 19.5192 34.9475 16.6631 37.0553 14.5553C39.1631 12.4476 42.0192 11.2593 45 11.25Z" fill="#6B99C3"/>
</g>
</svg>
