<svg width="90" height="90" viewBox="0 0 90 90" fill="none" xmlns="http://www.w3.org/2000/svg">
<g opacity="0.3">
<path d="M45 40.7812C54.3198 40.7812 61.875 33.2261 61.875 23.9062C61.875 14.5864 54.3198 7.03125 45 7.03125C35.6802 7.03125 28.125 14.5864 28.125 23.9062C28.125 33.2261 35.6802 40.7812 45 40.7812Z" fill="#6B99C3"/>
<path d="M66.0938 77.3438C75.4136 77.3438 82.9688 69.7886 82.9688 60.4688C82.9688 51.1489 75.4136 43.5938 66.0938 43.5938C56.7739 43.5938 49.2188 51.1489 49.2188 60.4688C49.2188 69.7886 56.7739 77.3438 66.0938 77.3438Z" fill="#6B99C3"/>
<path d="M23.9062 77.3438C33.2261 77.3438 40.7812 69.7886 40.7812 60.4688C40.7812 51.1489 33.2261 43.5938 23.9062 43.5938C14.5864 43.5938 7.03125 51.1489 7.03125 60.4688C7.03125 69.7886 14.5864 77.3438 23.9062 77.3438Z" fill="#6B99C3"/>
</g>
</svg>
