<svg width="120" height="120" viewBox="0 0 120 120" fill="none" xmlns="http://www.w3.org/2000/svg">
<g opacity="0.3">
<path d="M105.891 48.1875C104.109 46.3594 102.281 44.4375 101.578 42.7969C100.875 41.1562 100.922 38.7188 100.875 36.2344C100.828 31.6875 100.734 26.4844 97.125 22.875C93.5156 19.2656 88.3125 19.1719 83.7656 19.125C81.2812 19.0781 78.75 19.0312 77.2031 18.4219C75.6562 17.8125 73.6406 15.8906 71.8125 14.1094C68.5781 11.0156 64.875 7.5 60 7.5C55.125 7.5 51.4219 11.0156 48.1875 14.1094C46.3594 15.8906 44.4375 17.7188 42.7969 18.4219C41.1562 19.125 38.7188 19.0781 36.2344 19.125C31.6875 19.1719 26.4844 19.2656 22.875 22.875C19.2656 26.4844 19.1719 31.6875 19.125 36.2344C19.0781 38.7188 19.0312 41.25 18.4219 42.7969C17.8125 44.3438 15.8906 46.3594 14.1094 48.1875C11.0156 51.4219 7.5 55.125 7.5 60C7.5 64.875 11.0156 68.5781 14.1094 71.8125C15.8906 73.6406 17.7188 75.5625 18.4219 77.2031C19.125 78.8438 19.0781 81.2812 19.125 83.7656C19.1719 88.3125 19.2656 93.5156 22.875 97.125C26.4844 100.734 31.6875 100.828 36.2344 100.875C38.7188 100.922 41.25 100.969 42.7969 101.578C44.3438 102.188 46.3594 104.109 48.1875 105.891C51.4219 108.984 55.125 112.5 60 112.5C64.875 112.5 68.5781 108.984 71.8125 105.891C73.6406 104.109 75.5625 102.281 77.2031 101.578C78.8438 100.875 81.2812 100.922 83.7656 100.875C88.3125 100.828 93.5156 100.734 97.125 97.125C100.734 93.5156 100.828 88.3125 100.875 83.7656C100.922 81.2812 100.969 78.75 101.578 77.2031C102.188 75.6562 104.109 73.6406 105.891 71.8125C108.984 68.5781 112.5 64.875 112.5 60C112.5 55.125 108.984 51.4219 105.891 48.1875ZM83.2031 51.4688L55.7344 77.7188C55.0242 78.3868 54.0843 78.756 53.1094 78.75C52.1488 78.7536 51.2243 78.3839 50.5312 77.7188L36.7969 64.5938C36.4159 64.2614 36.1061 63.8554 35.8861 63.4003C35.666 62.9452 35.5403 62.4502 35.5164 61.9452C35.4925 61.4403 35.5709 60.9357 35.747 60.4618C35.9231 59.9879 36.1932 59.5545 36.5411 59.1877C36.889 58.8208 37.3074 58.5281 37.7713 58.3271C38.2352 58.1261 38.7349 58.021 39.2404 58.0181C39.7459 58.0152 40.2469 58.1145 40.713 58.3101C41.1792 58.5056 41.601 58.7935 41.9531 59.1562L53.1094 69.7969L78.0469 46.0312C78.776 45.3951 79.7229 45.0654 80.6894 45.1112C81.656 45.1569 82.5675 45.5745 83.2333 46.2766C83.8991 46.9788 84.2677 47.9111 84.2621 48.8788C84.2565 49.8464 83.8771 50.7744 83.2031 51.4688Z" fill="#6B99C3"/>
</g>
</svg>
