<svg width="90" height="90" viewBox="0 0 90 90" fill="none" xmlns="http://www.w3.org/2000/svg">
<g opacity="0.3">
<path d="M77.3438 59.449L45 78.2927L12.6563 59.449C12.018 59.1428 11.2877 59.0886 10.6112 59.2972C9.93473 59.5058 9.36178 59.9619 9.00674 60.5743C8.6517 61.1868 8.54068 61.9106 8.69583 62.6013C8.85098 63.292 9.26089 63.8988 9.84376 64.3005L43.5938 83.988C44.0189 84.242 44.5048 84.3761 45 84.3761C45.4952 84.3761 45.9811 84.242 46.4063 83.988L80.1563 64.3005C80.506 64.1328 80.8172 63.8946 81.0704 63.6008C81.3236 63.307 81.5133 62.964 81.6276 62.5934C81.7419 62.2228 81.7783 61.8325 81.7345 61.4471C81.6907 61.0618 81.5677 60.6896 81.3732 60.3541C81.1786 60.0186 80.9168 59.7269 80.6042 59.4974C80.2915 59.2679 79.9348 59.1055 79.5564 59.0205C79.1779 58.9355 78.786 58.9297 78.4053 59.0034C78.0245 59.0772 77.6631 59.2289 77.3438 59.449Z" fill="#6B99C3"/>
<path d="M77.3438 42.574L45 61.4177L12.6563 42.574C12.018 42.2678 11.2877 42.2136 10.6112 42.4222C9.93473 42.6308 9.36178 43.0869 9.00674 43.6993C8.6517 44.3118 8.54068 45.0356 8.69583 45.7263C8.85098 46.417 9.26089 47.0238 9.84376 47.4255L43.5938 67.113C44.0189 67.367 44.5048 67.5011 45 67.5011C45.4952 67.5011 45.9811 67.367 46.4063 67.113L80.1563 47.4255C80.506 47.2578 80.8172 47.0196 81.0704 46.7258C81.3236 46.432 81.5133 46.089 81.6276 45.7184C81.7419 45.3478 81.7783 44.9575 81.7345 44.5721C81.6907 44.1868 81.5677 43.8146 81.3732 43.4791C81.1786 43.1436 80.9168 42.8519 80.6042 42.6224C80.2915 42.3929 79.9348 42.2305 79.5564 42.1455C79.1779 42.0605 78.786 42.0547 78.4053 42.1284C78.0245 42.2022 77.6631 42.3539 77.3438 42.574Z" fill="#6B99C3"/>
<path d="M9.8438 30.5507L43.5938 50.2382C44.0189 50.4921 44.5049 50.6262 45.0001 50.6262C45.4952 50.6262 45.9812 50.4921 46.4063 50.2382L80.1563 30.5507C80.5792 30.3025 80.9299 29.9481 81.1736 29.5226C81.4173 29.0971 81.5455 28.6152 81.5455 28.1249C81.5455 27.6345 81.4173 27.1527 81.1736 26.7272C80.9299 26.3017 80.5792 25.9472 80.1563 25.6991L46.4063 6.0116C45.9825 5.75394 45.496 5.61768 45.0001 5.61768C44.5041 5.61768 44.0176 5.75394 43.5938 6.0116L9.8438 25.6991C9.42087 25.9472 9.07017 26.3017 8.82648 26.7272C8.58279 27.1527 8.45459 27.6345 8.45459 28.1249C8.45459 28.6152 8.58279 29.0971 8.82648 29.5226C9.07017 29.9481 9.42087 30.3025 9.8438 30.5507Z" fill="#6B99C3"/>
</g>
</svg>
