<?xml version="1.0" encoding="utf-8"?><svg xmlns="http://www.w3.org/2000/svg" xmlns:xlink="http://www.w3.org/1999/xlink"><symbol viewBox="0 0 12 22" id="left-filled-arrow" xmlns="http://www.w3.org/2000/svg"><path d="M11.3875 0.0751958C11.2028 0.00315034 11.0015 -0.0151266 10.8068 0.0224791C10.6121 0.0600848 10.4321 0.152036 10.2875 0.287696L0.287511 10.2877C0.0997292 10.4773 -0.00561523 10.7333 -0.00561523 11.0002C-0.00561523 11.267 0.0997292 11.5231 0.287511 11.7127L10.2875 21.7127C10.4795 21.8962 10.7345 21.9991 11 22.0002C11.1327 21.9996 11.2642 21.9742 11.3875 21.9252C11.5695 21.8487 11.7248 21.72 11.8338 21.5554C11.9428 21.3908 12.0006 21.1976 12 21.0002V1.0002C12.0006 0.802771 11.9428 0.609581 11.8338 0.444971C11.7248 0.280361 11.5695 0.151697 11.3875 0.0751958Z"/></symbol><symbol viewBox="0 0 57 23" id="logo" xmlns="http://www.w3.org/2000/svg"><path d="M1.28 17C1.104 17 0.96 16.944 0.848 16.832C0.736 16.72 0.68 16.576 0.68 16.4V0.8C0.68 0.623999 0.736 0.479999 0.848 0.368C0.96 0.255999 1.104 0.199999 1.28 0.199999H4.448C4.608 0.199999 4.744 0.255999 4.856 0.368C4.984 0.479999 5.048 0.623999 5.048 0.8V13.376H12.296C12.472 13.376 12.616 13.44 12.728 13.568C12.856 13.68 12.92 13.824 12.92 14V16.4C12.92 16.576 12.856 16.72 12.728 16.832C12.616 16.944 12.472 17 12.296 17H1.28ZM20.3898 17.24C19.0458 17.24 17.9098 17.024 16.9818 16.592C16.0698 16.16 15.3658 15.544 14.8698 14.744C14.3898 13.928 14.1178 12.96 14.0538 11.84C14.0378 11.52 14.0298 11.16 14.0298 10.76C14.0298 10.344 14.0378 9.984 14.0538 9.68C14.1178 8.544 14.4058 7.576 14.9178 6.776C15.4298 5.976 16.1418 5.36 17.0538 4.928C17.9818 4.496 19.0938 4.28 20.3898 4.28C21.7018 4.28 22.8138 4.496 23.7258 4.928C24.6538 5.36 25.3738 5.976 25.8858 6.776C26.3978 7.576 26.6858 8.544 26.7498 9.68C26.7658 9.984 26.7738 10.344 26.7738 10.76C26.7738 11.16 26.7658 11.52 26.7498 11.84C26.6858 12.96 26.4058 13.928 25.9098 14.744C25.4298 15.544 24.7258 16.16 23.7978 16.592C22.8858 17.024 21.7498 17.24 20.3898 17.24ZM20.3898 14.312C21.1098 14.312 21.6298 14.096 21.9498 13.664C22.2858 13.232 22.4778 12.584 22.5258 11.72C22.5418 11.48 22.5498 11.16 22.5498 10.76C22.5498 10.36 22.5418 10.04 22.5258 9.8C22.4778 8.952 22.2858 8.312 21.9498 7.88C21.6298 7.432 21.1098 7.208 20.3898 7.208C19.6858 7.208 19.1658 7.432 18.8298 7.88C18.4938 8.312 18.3098 8.952 18.2778 9.8C18.2618 10.04 18.2538 10.36 18.2538 10.76C18.2538 11.16 18.2618 11.48 18.2778 11.72C18.3098 12.584 18.4938 13.232 18.8298 13.664C19.1658 14.096 19.6858 14.312 20.3898 14.312ZM35.1209 22.28C33.8889 22.28 32.8649 22.12 32.0489 21.8C31.2489 21.48 30.6089 21.096 30.1289 20.648C29.6649 20.2 29.3289 19.752 29.1209 19.304C28.9129 18.872 28.8009 18.528 28.7849 18.272C28.7689 18.096 28.8249 17.952 28.9529 17.84C29.0809 17.728 29.2329 17.672 29.4089 17.672H32.4569C32.6009 17.672 32.7209 17.704 32.8169 17.768C32.9289 17.848 33.0169 17.976 33.0809 18.152C33.1609 18.328 33.2649 18.512 33.3929 18.704C33.5369 18.896 33.7289 19.048 33.9689 19.16C34.2249 19.288 34.5689 19.352 35.0009 19.352C35.4809 19.352 35.8809 19.272 36.2009 19.112C36.5209 18.968 36.7609 18.72 36.9209 18.368C37.0809 18.032 37.1609 17.576 37.1609 17V15.392C36.7929 15.792 36.3209 16.12 35.7449 16.376C35.1689 16.616 34.4729 16.736 33.6569 16.736C32.8409 16.736 32.1209 16.616 31.4969 16.376C30.8729 16.136 30.3529 15.776 29.9369 15.296C29.5209 14.816 29.1929 14.232 28.9529 13.544C28.7289 12.856 28.5929 12.064 28.5449 11.168C28.5289 10.752 28.5289 10.336 28.5449 9.92C28.5929 9.056 28.7289 8.28 28.9529 7.592C29.1769 6.904 29.4969 6.312 29.9129 5.816C30.3449 5.32 30.8729 4.944 31.4969 4.688C32.1209 4.416 32.8409 4.28 33.6569 4.28C34.5209 4.28 35.2569 4.448 35.8649 4.784C36.4889 5.104 37.0009 5.512 37.4009 6.008V5.12C37.4009 4.96 37.4569 4.824 37.5689 4.712C37.6809 4.584 37.8249 4.52 38.0009 4.52H40.7609C40.9369 4.52 41.0809 4.584 41.1929 4.712C41.3209 4.824 41.3849 4.96 41.3849 5.12V16.664C41.3849 17.88 41.1369 18.904 40.6409 19.736C40.1449 20.568 39.4329 21.2 38.5049 21.632C37.5769 22.064 36.4489 22.28 35.1209 22.28ZM34.9529 13.616C35.4649 13.616 35.8809 13.504 36.2009 13.28C36.5209 13.056 36.7529 12.768 36.8969 12.416C37.0569 12.064 37.1449 11.688 37.1609 11.288C37.1769 11.112 37.1849 10.864 37.1849 10.544C37.1849 10.224 37.1769 9.984 37.1609 9.824C37.1449 9.408 37.0569 9.024 36.8969 8.672C36.7529 8.32 36.5209 8.04 36.2009 7.832C35.8809 7.608 35.4649 7.496 34.9529 7.496C34.4249 7.496 34.0009 7.608 33.6809 7.832C33.3769 8.056 33.1529 8.36 33.0089 8.744C32.8809 9.128 32.8009 9.552 32.7689 10.016C32.7529 10.368 32.7529 10.728 32.7689 11.096C32.8009 11.56 32.8809 11.984 33.0089 12.368C33.1529 12.752 33.3769 13.056 33.6809 13.28C34.0009 13.504 34.4249 13.616 34.9529 13.616ZM49.9825 17.24C48.6385 17.24 47.5025 17.024 46.5745 16.592C45.6625 16.16 44.9585 15.544 44.4625 14.744C43.9825 13.928 43.7105 12.96 43.6465 11.84C43.6305 11.52 43.6225 11.16 43.6225 10.76C43.6225 10.344 43.6305 9.984 43.6465 9.68C43.7105 8.544 43.9985 7.576 44.5105 6.776C45.0225 5.976 45.7345 5.36 46.6465 4.928C47.5745 4.496 48.6865 4.28 49.9825 4.28C51.2945 4.28 52.4065 4.496 53.3185 4.928C54.2465 5.36 54.9665 5.976 55.4785 6.776C55.9905 7.576 56.2785 8.544 56.3425 9.68C56.3585 9.984 56.3665 10.344 56.3665 10.76C56.3665 11.16 56.3585 11.52 56.3425 11.84C56.2785 12.96 55.9985 13.928 55.5025 14.744C55.0225 15.544 54.3185 16.16 53.3905 16.592C52.4785 17.024 51.3425 17.24 49.9825 17.24ZM49.9825 14.312C50.7025 14.312 51.2225 14.096 51.5425 13.664C51.8785 13.232 52.0705 12.584 52.1185 11.72C52.1345 11.48 52.1425 11.16 52.1425 10.76C52.1425 10.36 52.1345 10.04 52.1185 9.8C52.0705 8.952 51.8785 8.312 51.5425 7.88C51.2225 7.432 50.7025 7.208 49.9825 7.208C49.2785 7.208 48.7585 7.432 48.4225 7.88C48.0865 8.312 47.9025 8.952 47.8705 9.8C47.8545 10.04 47.8465 10.36 47.8465 10.76C47.8465 11.16 47.8545 11.48 47.8705 11.72C47.9025 12.584 48.0865 13.232 48.4225 13.664C48.7585 14.096 49.2785 14.312 49.9825 14.312Z"/></symbol><symbol viewBox="0 0 32 32" id="shortcut-instagram" xmlns="http://www.w3.org/2000/svg"><path d="M16 20C18.2091 20 20 18.2091 20 16C20 13.7909 18.2091 12 16 12C13.7909 12 12 13.7909 12 16C12 18.2091 13.7909 20 16 20Z"/><path d="M21.5 3.5H10.5C8.64348 3.5 6.86301 4.2375 5.55025 5.55025C4.2375 6.86301 3.5 8.64348 3.5 10.5V21.5C3.5 23.3565 4.2375 25.137 5.55025 26.4497C6.86301 27.7625 8.64348 28.5 10.5 28.5H21.5C23.3565 28.5 25.137 27.7625 26.4497 26.4497C27.7625 25.137 28.5 23.3565 28.5 21.5V10.5C28.5 8.64348 27.7625 6.86301 26.4497 5.55025C25.137 4.2375 23.3565 3.5 21.5 3.5ZM16 22C14.8133 22 13.6533 21.6481 12.6666 20.9888C11.6799 20.3295 10.9108 19.3925 10.4567 18.2961C10.0026 17.1997 9.88378 15.9933 10.1153 14.8295C10.3468 13.6656 10.9182 12.5965 11.7574 11.7574C12.5965 10.9182 13.6656 10.3468 14.8295 10.1153C15.9933 9.88378 17.1997 10.0026 18.2961 10.4567C19.3925 10.9108 20.3295 11.6799 20.9888 12.6666C21.6481 13.6533 22 14.8133 22 16C22 17.5913 21.3679 19.1174 20.2426 20.2426C19.1174 21.3679 17.5913 22 16 22ZM22.5 11C22.2033 11 21.9133 10.912 21.6666 10.7472C21.42 10.5824 21.2277 10.3481 21.1142 10.074C21.0007 9.79994 20.9709 9.49834 21.0288 9.20736C21.0867 8.91639 21.2296 8.64912 21.4393 8.43934C21.6491 8.22956 21.9164 8.0867 22.2074 8.02882C22.4983 7.97094 22.7999 8.00065 23.074 8.11418C23.3481 8.22771 23.5824 8.41997 23.7472 8.66665C23.912 8.91332 24 9.20333 24 9.5C24 9.89782 23.842 10.2794 23.5607 10.5607C23.2794 10.842 22.8978 11 22.5 11Z"/></symbol><symbol viewBox="0 0 32 32" id="shortcut-telegram" xmlns="http://www.w3.org/2000/svg"><path d="M28.9124 3.96245C28.635 3.72736 28.299 3.57183 27.9403 3.51241C27.5815 3.45298 27.2134 3.49187 26.8749 3.62495L3.79992 12.6874C3.39519 12.8416 3.05237 13.1246 2.82424 13.4928C2.59612 13.8609 2.49534 14.2939 2.53742 14.7249C2.57497 15.1558 2.75119 15.5629 3.03966 15.8852C3.32814 16.2075 3.71331 16.4276 4.13742 16.5124L9.99992 17.6749V24.9999C9.99972 25.3962 10.1172 25.7836 10.3376 26.113C10.5579 26.4424 10.8711 26.6989 11.2374 26.8499C11.4799 26.9475 11.7386 26.9984 11.9999 26.9999C12.2626 27.0009 12.5228 26.9494 12.7654 26.8485C13.0079 26.7476 13.2279 26.5994 13.4124 26.4124L16.6624 23.1749L21.5749 27.4999C21.9376 27.8198 22.4039 27.9974 22.8874 27.9999C23.1001 28.0043 23.3118 27.9705 23.5124 27.8999C23.8423 27.7956 24.1392 27.6069 24.3738 27.3526C24.6083 27.0983 24.7725 26.7871 24.8499 26.4499L29.5499 5.92495C29.6321 5.57078 29.6161 5.20092 29.5038 4.85514C29.3915 4.50935 29.187 4.20073 28.9124 3.96245ZM22.8999 25.9999L12.5999 16.9374L27.4374 6.22495L22.8999 25.9999Z"/></symbol><symbol viewBox="0 0 32 32" id="shortcut-whatsapp" xmlns="http://www.w3.org/2000/svg"><path d="M16 3C13.7423 2.99983 11.5234 3.58766 9.56187 4.70562C7.60035 5.82357 5.9638 7.43311 4.81335 9.37575C3.6629 11.3184 3.03822 13.5272 3.00081 15.7846C2.9634 18.042 3.51456 20.2703 4.60001 22.25L3.53751 26C3.43839 26.3417 3.43282 26.7038 3.52138 27.0484C3.60993 27.393 3.78937 27.7075 4.04096 27.9591C4.29254 28.2106 4.60705 28.3901 4.95165 28.4786C5.29625 28.5672 5.6583 28.5616 6.00001 28.4625L9.75001 27.4C11.4879 28.3525 13.4205 28.8951 15.4002 28.9862C17.3798 29.0774 19.3541 28.7148 21.1722 27.926C22.9902 27.1373 24.6039 25.9433 25.8898 24.4354C27.1757 22.9275 28.0999 21.1456 28.5916 19.2258C29.0834 17.306 29.1297 15.2992 28.7271 13.3588C28.3244 11.4183 27.4835 9.59563 26.2685 8.02999C25.0535 6.46435 23.4967 5.19721 21.717 4.32542C19.9373 3.45363 17.9818 3.00027 16 3ZM19.0125 24H19C16.0815 23.9967 13.2836 22.835 11.2211 20.7701C9.15853 18.7052 8.00001 15.906 8.00001 12.9875C8.00332 11.7962 8.47889 10.6548 9.32244 9.8136C10.166 8.97238 11.3087 8.5 12.5 8.5C12.8275 8.50072 13.149 8.58776 13.4321 8.75235C13.7152 8.91694 13.9499 9.15327 14.1125 9.4375L15.575 12C15.7516 12.3069 15.8425 12.6556 15.8381 13.0097C15.8337 13.3637 15.7342 13.7101 15.55 14.0125L14.6625 15.5C15.1088 16.2588 15.7412 16.8913 16.5 17.3375L17.9875 16.45C18.2899 16.2658 18.6363 16.1663 18.9903 16.1619C19.3444 16.1575 19.6931 16.2484 20 16.425L22.5625 17.8875C22.8467 18.0501 23.0831 18.2848 23.2477 18.5679C23.4123 18.851 23.4993 19.1725 23.5 19.5C23.5 20.6913 23.0276 21.834 22.1864 22.6776C21.3452 23.5211 20.2038 23.9967 19.0125 24Z"/><path d="M17.0625 19.3375C16.9234 19.4188 16.7669 19.4658 16.6061 19.4745C16.4452 19.4832 16.2845 19.4534 16.1375 19.3875C14.5657 18.6908 13.3092 17.4343 12.6125 15.8625C12.5466 15.7155 12.5168 15.5548 12.5255 15.3939C12.5342 15.2331 12.5812 15.0766 12.6625 14.9375L13.8375 12.9875L12.425 10.5C11.7762 10.5163 11.1594 10.7856 10.7063 11.2503C10.2533 11.715 9.9998 12.3385 10 12.9875C9.99837 14.1704 10.2299 15.3421 10.6815 16.4355C11.1331 17.5289 11.7957 18.5225 12.6316 19.3595C13.4675 20.1966 14.4602 20.8606 15.553 21.3137C16.6457 21.7668 17.8171 22 19 22H19.0125C19.6615 22.0002 20.285 21.7467 20.7497 21.2937C21.2144 20.8406 21.4837 20.2238 21.5 19.575L19.0125 18.1625L17.0625 19.3375Z"/></symbol><symbol viewBox="0 0 11 20" id="simple-left-arrow" xmlns="http://www.w3.org/2000/svg"><path fill-rule="evenodd" clip-rule="evenodd" d="M9.71661 0L11 1.32082L2.56677 10L11 18.6792L9.71661 20L0 10L9.71661 0Z"/></symbol></svg>