<svg width="12" height="22" viewBox="0 0 12 22" fill="none" xmlns="http://www.w3.org/2000/svg">
<path d="M11.3875 0.0751958C11.2028 0.00315034 11.0015 -0.0151266 10.8068 0.0224791C10.6121 0.0600848 10.4321 0.152036 10.2875 0.287696L0.287511 10.2877C0.0997292 10.4773 -0.00561523 10.7333 -0.00561523 11.0002C-0.00561523 11.267 0.0997292 11.5231 0.287511 11.7127L10.2875 21.7127C10.4795 21.8962 10.7345 21.9991 11 22.0002C11.1327 21.9996 11.2642 21.9742 11.3875 21.9252C11.5695 21.8487 11.7248 21.72 11.8338 21.5554C11.9428 21.3908 12.0006 21.1976 12 21.0002V1.0002C12.0006 0.802771 11.9428 0.609581 11.8338 0.444971C11.7248 0.280361 11.5695 0.151697 11.3875 0.0751958Z" fill="white"/>
</svg>
