<?xml version="1.0" encoding="utf-8"?><svg viewBox="0 0 57 32" xmlns="http://www.w3.org/2000/svg" xmlns:xlink="http://www.w3.org/1999/xlink"><style>:root>svg{display:none}:root>svg:target{display:block}</style><svg fill="none" viewBox="0 0 12 22" id="left-filled-arrow" xmlns="http://www.w3.org/2000/svg">
    <path d="M11.387.075a1.05 1.05 0 0 0-1.1.213l-10 10a1.012 1.012 0 0 0 0 1.425l10 10a1.037 1.037 0 0 0 1.1.212A1 1 0 0 0 12 21V1a1 1 0 0 0-.613-.925Z" fill="#fff"/>
</svg><svg fill="#fff" viewBox="0 0 57 23" id="logo" xmlns="http://www.w3.org/2000/svg">
    <path d="M1.28 17a.585.585 0 0 1-.432-.168.585.585 0 0 1-.168-.432V.8C.68.624.736.48.848.368A.585.585 0 0 1 1.28.2h3.168c.16 0 .296.056.408.168A.548.548 0 0 1 5.048.8v12.576h7.248c.176 0 .32.064.432.192a.548.548 0 0 1 .192.432v2.4c0 .176-.064.32-.192.432a.585.585 0 0 1-.432.168H1.28Zm19.11.24c-1.344 0-2.48-.216-3.408-.648-.912-.432-1.616-1.048-2.112-1.848-.48-.816-.752-1.784-.816-2.904-.016-.32-.024-.68-.024-1.08 0-.416.008-.776.024-1.08.064-1.136.352-2.104.864-2.904.512-.8 1.224-1.416 2.136-1.848.928-.432 2.04-.648 3.336-.648 1.312 0 2.424.216 3.336.648.928.432 1.648 1.048 2.16 1.848.512.8.8 1.768.864 2.904.016.304.024.664.024 1.08 0 .4-.008.76-.024 1.08-.064 1.12-.344 2.088-.84 2.904-.48.8-1.184 1.416-2.112 1.848-.912.432-2.048.648-3.408.648Zm0-2.928c.72 0 1.24-.216 1.56-.648.336-.432.528-1.08.576-1.944.016-.24.024-.56.024-.96 0-.4-.008-.72-.024-.96-.048-.848-.24-1.488-.576-1.92-.32-.448-.84-.672-1.56-.672-.704 0-1.224.224-1.56.672-.336.432-.52 1.072-.552 1.92-.016.24-.024.56-.024.96 0 .4.008.72.024.96.032.864.216 1.512.552 1.944.336.432.856.648 1.56.648Zm14.73 7.968c-1.231 0-2.255-.16-3.071-.48-.8-.32-1.44-.704-1.92-1.152-.464-.448-.8-.896-1.008-1.344-.208-.432-.32-.776-.336-1.032a.484.484 0 0 1 .168-.432.67.67 0 0 1 .456-.168h3.048c.144 0 .264.032.36.096.112.08.2.208.264.384.08.176.184.36.312.552.144.192.336.344.576.456.256.128.6.192 1.032.192.48 0 .88-.08 1.2-.24.32-.144.56-.392.72-.744.16-.336.24-.792.24-1.368v-1.608c-.368.4-.84.728-1.416.984-.576.24-1.272.36-2.088.36-.816 0-1.536-.12-2.16-.36a3.86 3.86 0 0 1-1.56-1.08c-.416-.48-.744-1.064-.984-1.752-.224-.688-.36-1.48-.408-2.376a16.23 16.23 0 0 1 0-1.248c.048-.864.184-1.64.408-2.328.224-.688.544-1.28.96-1.776.432-.496.96-.872 1.584-1.128.624-.272 1.344-.408 2.16-.408.864 0 1.6.168 2.208.504.624.32 1.136.728 1.536 1.224V5.12c0-.16.056-.296.168-.408A.548.548 0 0 1 38 4.52h2.76c.176 0 .32.064.432.192a.523.523 0 0 1 .192.408v11.544c0 1.216-.248 2.24-.744 3.072-.496.832-1.208 1.464-2.136 1.896-.928.432-2.056.648-3.384.648Zm-.167-8.664c.512 0 .928-.112 1.248-.336.32-.224.552-.512.696-.864.16-.352.248-.728.264-1.128.016-.176.024-.424.024-.744s-.008-.56-.024-.72a3.038 3.038 0 0 0-.264-1.152 1.787 1.787 0 0 0-.696-.84c-.32-.224-.736-.336-1.248-.336-.528 0-.952.112-1.272.336a1.953 1.953 0 0 0-.672.912 5.13 5.13 0 0 0-.24 1.272c-.016.352-.016.712 0 1.08.032.464.112.888.24 1.272.144.384.368.688.672.912.32.224.744.336 1.272.336Zm15.03 3.624c-1.344 0-2.48-.216-3.408-.648-.913-.432-1.617-1.048-2.113-1.848-.48-.816-.752-1.784-.816-2.904-.016-.32-.023-.68-.023-1.08 0-.416.008-.776.024-1.08.064-1.136.352-2.104.864-2.904.511-.8 1.223-1.416 2.136-1.848.928-.432 2.04-.648 3.336-.648 1.312 0 2.424.216 3.336.648.927.432 1.648 1.048 2.16 1.848.511.8.8 1.768.864 2.904.015.304.023.664.023 1.08 0 .4-.008.76-.023 1.08-.065 1.12-.345 2.088-.84 2.904-.48.8-1.184 1.416-2.112 1.848-.913.432-2.048.648-3.408.648Zm0-2.928c.72 0 1.24-.216 1.56-.648.336-.432.528-1.08.575-1.944.017-.24.024-.56.024-.96 0-.4-.008-.72-.024-.96-.047-.848-.24-1.488-.576-1.92-.32-.448-.84-.672-1.56-.672-.703 0-1.224.224-1.56.672-.335.432-.52 1.072-.551 1.92-.017.24-.025.56-.025.96 0 .4.009.72.025.96.032.864.215 1.512.551 1.944.337.432.857.648 1.56.648Z"/>
</svg><svg viewBox="0 0 32 32" id="shortcut-instagram" xmlns="http://www.w3.org/2000/svg">
    <path d="M16 20a4 4 0 1 0 0-8 4 4 0 0 0 0 8Z"/>
    <path d="M21.5 3.5h-11a7 7 0 0 0-7 7v11a7 7 0 0 0 7 7h11a7 7 0 0 0 7-7v-11a7 7 0 0 0-7-7ZM16 22a6 6 0 1 1 0-12 6 6 0 0 1 0 12Zm6.5-11a1.5 1.5 0 1 1 0-3 1.5 1.5 0 0 1 0 3Z"/>
</svg><svg viewBox="0 0 32 32" id="shortcut-telegram" xmlns="http://www.w3.org/2000/svg">
    <path d="M28.912 3.962a2.012 2.012 0 0 0-2.037-.337L3.8 12.687a1.975 1.975 0 0 0-1.263 2.038 2 2 0 0 0 1.6 1.787L10 17.675V25a2 2 0 0 0 2.765 1.849c.243-.101.463-.25.647-.437l3.25-3.237 4.913 4.325a2 2 0 0 0 1.312.5c.213.004.425-.03.625-.1a1.987 1.987 0 0 0 1.338-1.45l4.7-20.525a2 2 0 0 0-.638-1.963ZM22.9 26l-10.3-9.063L27.437 6.225 22.9 26Z"/>
</svg><svg viewBox="0 0 32 32" id="shortcut-whatsapp" xmlns="http://www.w3.org/2000/svg">
    <path d="M16 3A13 13 0 0 0 4.6 22.25L3.538 26A1.988 1.988 0 0 0 6 28.462L9.75 27.4A13 13 0 1 0 16 3Zm3.012 21H19A11.012 11.012 0 0 1 8 12.988 4.5 4.5 0 0 1 12.5 8.5a1.863 1.863 0 0 1 1.613.938L15.575 12a1.975 1.975 0 0 1-.025 2.012l-.888 1.488a5.175 5.175 0 0 0 1.838 1.837l1.488-.887A1.975 1.975 0 0 1 20 16.425l2.563 1.462A1.863 1.863 0 0 1 23.5 19.5a4.5 4.5 0 0 1-4.488 4.5Z"/>
    <path d="M17.063 19.337a1.013 1.013 0 0 1-.925.05 6.926 6.926 0 0 1-3.526-3.524 1.012 1.012 0 0 1 .05-.925l1.175-1.95-1.412-2.488A2.488 2.488 0 0 0 10 12.988 9 9 0 0 0 19 22h.012a2.488 2.488 0 0 0 2.488-2.425l-2.488-1.412-1.95 1.174Z"/>
</svg><svg fill="none" viewBox="0 0 11 20" id="simple-left-arrow" xmlns="http://www.w3.org/2000/svg">
    <path fill-rule="evenodd" clip-rule="evenodd" d="M9.717 0 11 1.32 2.567 10 11 18.68 9.717 20 0 10 9.717 0Z" fill="#7859CF"/>
</svg></svg>