<svg width="57" height="23" viewBox="0 0 57 23" fill="white" xmlns="http://www.w3.org/2000/svg">
<path d="M1.28 17C1.104 17 0.96 16.944 0.848 16.832C0.736 16.72 0.68 16.576 0.68 16.4V0.8C0.68 0.623999 0.736 0.479999 0.848 0.368C0.96 0.255999 1.104 0.199999 1.28 0.199999H4.448C4.608 0.199999 4.744 0.255999 4.856 0.368C4.984 0.479999 5.048 0.623999 5.048 0.8V13.376H12.296C12.472 13.376 12.616 13.44 12.728 13.568C12.856 13.68 12.92 13.824 12.92 14V16.4C12.92 16.576 12.856 16.72 12.728 16.832C12.616 16.944 12.472 17 12.296 17H1.28ZM20.3898 17.24C19.0458 17.24 17.9098 17.024 16.9818 16.592C16.0698 16.16 15.3658 15.544 14.8698 14.744C14.3898 13.928 14.1178 12.96 14.0538 11.84C14.0378 11.52 14.0298 11.16 14.0298 10.76C14.0298 10.344 14.0378 9.984 14.0538 9.68C14.1178 8.544 14.4058 7.576 14.9178 6.776C15.4298 5.976 16.1418 5.36 17.0538 4.928C17.9818 4.496 19.0938 4.28 20.3898 4.28C21.7018 4.28 22.8138 4.496 23.7258 4.928C24.6538 5.36 25.3738 5.976 25.8858 6.776C26.3978 7.576 26.6858 8.544 26.7498 9.68C26.7658 9.984 26.7738 10.344 26.7738 10.76C26.7738 11.16 26.7658 11.52 26.7498 11.84C26.6858 12.96 26.4058 13.928 25.9098 14.744C25.4298 15.544 24.7258 16.16 23.7978 16.592C22.8858 17.024 21.7498 17.24 20.3898 17.24ZM20.3898 14.312C21.1098 14.312 21.6298 14.096 21.9498 13.664C22.2858 13.232 22.4778 12.584 22.5258 11.72C22.5418 11.48 22.5498 11.16 22.5498 10.76C22.5498 10.36 22.5418 10.04 22.5258 9.8C22.4778 8.952 22.2858 8.312 21.9498 7.88C21.6298 7.432 21.1098 7.208 20.3898 7.208C19.6858 7.208 19.1658 7.432 18.8298 7.88C18.4938 8.312 18.3098 8.952 18.2778 9.8C18.2618 10.04 18.2538 10.36 18.2538 10.76C18.2538 11.16 18.2618 11.48 18.2778 11.72C18.3098 12.584 18.4938 13.232 18.8298 13.664C19.1658 14.096 19.6858 14.312 20.3898 14.312ZM35.1209 22.28C33.8889 22.28 32.8649 22.12 32.0489 21.8C31.2489 21.48 30.6089 21.096 30.1289 20.648C29.6649 20.2 29.3289 19.752 29.1209 19.304C28.9129 18.872 28.8009 18.528 28.7849 18.272C28.7689 18.096 28.8249 17.952 28.9529 17.84C29.0809 17.728 29.2329 17.672 29.4089 17.672H32.4569C32.6009 17.672 32.7209 17.704 32.8169 17.768C32.9289 17.848 33.0169 17.976 33.0809 18.152C33.1609 18.328 33.2649 18.512 33.3929 18.704C33.5369 18.896 33.7289 19.048 33.9689 19.16C34.2249 19.288 34.5689 19.352 35.0009 19.352C35.4809 19.352 35.8809 19.272 36.2009 19.112C36.5209 18.968 36.7609 18.72 36.9209 18.368C37.0809 18.032 37.1609 17.576 37.1609 17V15.392C36.7929 15.792 36.3209 16.12 35.7449 16.376C35.1689 16.616 34.4729 16.736 33.6569 16.736C32.8409 16.736 32.1209 16.616 31.4969 16.376C30.8729 16.136 30.3529 15.776 29.9369 15.296C29.5209 14.816 29.1929 14.232 28.9529 13.544C28.7289 12.856 28.5929 12.064 28.5449 11.168C28.5289 10.752 28.5289 10.336 28.5449 9.92C28.5929 9.056 28.7289 8.28 28.9529 7.592C29.1769 6.904 29.4969 6.312 29.9129 5.816C30.3449 5.32 30.8729 4.944 31.4969 4.688C32.1209 4.416 32.8409 4.28 33.6569 4.28C34.5209 4.28 35.2569 4.448 35.8649 4.784C36.4889 5.104 37.0009 5.512 37.4009 6.008V5.12C37.4009 4.96 37.4569 4.824 37.5689 4.712C37.6809 4.584 37.8249 4.52 38.0009 4.52H40.7609C40.9369 4.52 41.0809 4.584 41.1929 4.712C41.3209 4.824 41.3849 4.96 41.3849 5.12V16.664C41.3849 17.88 41.1369 18.904 40.6409 19.736C40.1449 20.568 39.4329 21.2 38.5049 21.632C37.5769 22.064 36.4489 22.28 35.1209 22.28ZM34.9529 13.616C35.4649 13.616 35.8809 13.504 36.2009 13.28C36.5209 13.056 36.7529 12.768 36.8969 12.416C37.0569 12.064 37.1449 11.688 37.1609 11.288C37.1769 11.112 37.1849 10.864 37.1849 10.544C37.1849 10.224 37.1769 9.984 37.1609 9.824C37.1449 9.408 37.0569 9.024 36.8969 8.672C36.7529 8.32 36.5209 8.04 36.2009 7.832C35.8809 7.608 35.4649 7.496 34.9529 7.496C34.4249 7.496 34.0009 7.608 33.6809 7.832C33.3769 8.056 33.1529 8.36 33.0089 8.744C32.8809 9.128 32.8009 9.552 32.7689 10.016C32.7529 10.368 32.7529 10.728 32.7689 11.096C32.8009 11.56 32.8809 11.984 33.0089 12.368C33.1529 12.752 33.3769 13.056 33.6809 13.28C34.0009 13.504 34.4249 13.616 34.9529 13.616ZM49.9825 17.24C48.6385 17.24 47.5025 17.024 46.5745 16.592C45.6625 16.16 44.9585 15.544 44.4625 14.744C43.9825 13.928 43.7105 12.96 43.6465 11.84C43.6305 11.52 43.6225 11.16 43.6225 10.76C43.6225 10.344 43.6305 9.984 43.6465 9.68C43.7105 8.544 43.9985 7.576 44.5105 6.776C45.0225 5.976 45.7345 5.36 46.6465 4.928C47.5745 4.496 48.6865 4.28 49.9825 4.28C51.2945 4.28 52.4065 4.496 53.3185 4.928C54.2465 5.36 54.9665 5.976 55.4785 6.776C55.9905 7.576 56.2785 8.544 56.3425 9.68C56.3585 9.984 56.3665 10.344 56.3665 10.76C56.3665 11.16 56.3585 11.52 56.3425 11.84C56.2785 12.96 55.9985 13.928 55.5025 14.744C55.0225 15.544 54.3185 16.16 53.3905 16.592C52.4785 17.024 51.3425 17.24 49.9825 17.24ZM49.9825 14.312C50.7025 14.312 51.2225 14.096 51.5425 13.664C51.8785 13.232 52.0705 12.584 52.1185 11.72C52.1345 11.48 52.1425 11.16 52.1425 10.76C52.1425 10.36 52.1345 10.04 52.1185 9.8C52.0705 8.952 51.8785 8.312 51.5425 7.88C51.2225 7.432 50.7025 7.208 49.9825 7.208C49.2785 7.208 48.7585 7.432 48.4225 7.88C48.0865 8.312 47.9025 8.952 47.8705 9.8C47.8545 10.04 47.8465 10.36 47.8465 10.76C47.8465 11.16 47.8545 11.48 47.8705 11.72C47.9025 12.584 48.0865 13.232 48.4225 13.664C48.7585 14.096 49.2785 14.312 49.9825 14.312Z" />
</svg>
